<svg width="1024" height="1024" viewBox="0 0 1024 1024" fill="none" xmlns="http://www.w3.org/2000/svg">
<g clip-path="url(#clip0_1_1045)">
<rect width="1024" height="1024" rx="238" fill="#18181B"/>
<path d="M448 272C430.3 272 416 286.3 416 304V336H407.1C365.1 336 328 363.3 315.5 403.4L292.5 476.9C270.5 491.1 256 515.9 256 544V720C256 737.7 270.3 752 288 752H320C337.7 752 352 737.7 352 720V688H672V720C672 737.7 686.3 752 704 752H736C753.7 752 768 737.7 768 720V544C768 515.9 753.5 491.1 731.6 476.9L708.6 403.4C696.1 363.3 658.9 336 616.9 336H608V304C608 286.3 593.7 272 576 272H448ZM407.1 400H617C631 400 643.4 409.1 647.5 422.5L660.5 464H363.6L376.6 422.5C380.8 409.1 393.1 400 407.1 400ZM352 544C369.7 544 384 558.3 384 576C384 593.7 369.7 608 352 608C334.3 608 320 593.7 320 576C320 558.3 334.3 544 352 544ZM640 576C640 558.3 654.3 544 672 544C689.7 544 704 558.3 704 576C704 593.7 689.7 608 672 608C654.3 608 640 593.7 640 576Z" fill="white"/>
</g>
<defs>
<clipPath id="clip0_1_1045">
<rect width="1024" height="1024" fill="white"/>
</clipPath>
</defs>
</svg>
