<svg width="641" height="485" viewBox="0 0 641 485" fill="none" xmlns="http://www.w3.org/2000/svg">
<path d="M611.107 483.157H29.526C21.698 483.148 14.1932 480.034 8.65791 474.499C3.12266 468.964 0.00899865 461.459 0 453.631V29.531C0.00899865 21.703 3.12266 14.1982 8.65791 8.6629C14.1932 3.12765 21.698 0.0140035 29.526 0.00500488H611.107C618.935 0.0140035 626.44 3.12765 631.975 8.6629C637.51 14.1982 640.624 21.703 640.633 29.531V453.631C640.624 461.459 637.51 468.964 631.975 474.499C626.44 480.034 618.935 483.148 611.107 483.157Z" fill="#E6E6E6"/>
<path d="M570.178 482.262H566.187L504.558 358.109L502.769 354.53L457.191 262.695L379.958 107.095L378.186 103.516L327.24 0.89502H331.248L382.176 103.521L383.97 107.095L459.235 258.734L461.007 262.313L506.567 354.077L570.178 482.262Z" fill="white"/>
<path d="M639.735 103.529H0.89502V107.108H639.735V103.529Z" fill="white"/>
<path d="M639.735 258.748H457.959V262.327H639.735V258.748Z" fill="white"/>
<path d="M174.502 0.89502H170.923V484.051H174.502V0.89502Z" fill="white"/>
<path d="M505.664 354.524H172.712V358.103H505.664V354.524Z" fill="white"/>
<path d="M381.156 189.684C381.156 220.184 336.298 306.203 319.45 337.434C318.838 338.57 317.93 339.52 316.822 340.182C315.714 340.843 314.447 341.193 313.156 341.193C311.866 341.193 310.599 340.843 309.491 340.182C308.383 339.52 307.475 338.57 306.863 337.434C290.015 306.203 245.157 220.187 245.157 189.684C245.157 171.649 252.321 154.353 265.074 141.601C277.826 128.848 295.122 121.684 313.157 121.684C331.192 121.684 348.488 128.848 361.24 141.601C373.993 154.353 381.157 171.649 381.157 189.684H381.156Z" fill="white"/>
<path d="M313.508 220.195C330.192 220.195 343.718 206.67 343.718 189.985C343.718 173.301 330.192 159.775 313.508 159.775C296.823 159.775 283.298 173.301 283.298 189.985C283.298 206.67 296.823 220.195 313.508 220.195Z" fill="#E6E6E6"/>
<path d="M313.509 345.06C320.553 345.06 342.456 350.771 342.456 357.815C342.456 364.859 320.553 370.57 313.509 370.57C306.465 370.57 292.037 364.86 292.037 357.815C292.037 350.77 306.464 345.06 313.509 345.06Z" fill="white"/>
<path d="M558.205 221.861L524.049 190.333C523.807 190.11 523.489 189.985 523.16 189.985C522.83 189.985 522.512 190.11 522.27 190.333L506.653 204.754V198.354C506.653 198.006 506.515 197.672 506.269 197.426C506.023 197.18 505.689 197.042 505.341 197.042H502.718C502.546 197.042 502.375 197.076 502.216 197.142C502.057 197.208 501.912 197.304 501.79 197.426C501.668 197.548 501.572 197.693 501.506 197.852C501.44 198.011 501.406 198.182 501.406 198.354V209.597L488.125 221.86C487.931 222.039 487.796 222.272 487.737 222.53C487.678 222.787 487.698 223.055 487.794 223.301C487.89 223.547 488.058 223.758 488.276 223.906C488.494 224.055 488.751 224.135 489.015 224.135H495.588C495.936 224.135 496.269 224.273 496.515 224.519C496.761 224.765 496.9 225.098 496.9 225.446V257.435C496.9 257.607 496.934 257.778 497 257.937C497.066 258.096 497.162 258.241 497.284 258.363C497.406 258.485 497.551 258.582 497.71 258.647C497.869 258.713 498.04 258.747 498.212 258.747H548.103C548.451 258.747 548.785 258.609 549.031 258.363C549.277 258.117 549.415 257.783 549.415 257.435V225.448C549.415 225.276 549.449 225.105 549.515 224.946C549.58 224.787 549.677 224.642 549.799 224.52C549.92 224.399 550.065 224.302 550.224 224.236C550.383 224.17 550.554 224.136 550.726 224.136H557.313C557.577 224.136 557.834 224.056 558.052 223.907C558.27 223.759 558.438 223.548 558.534 223.302C558.63 223.056 558.65 222.788 558.591 222.53C558.532 222.273 558.397 222.04 558.203 221.861H558.205ZM515.815 235.661H530.504C530.852 235.661 531.186 235.799 531.432 236.045C531.678 236.291 531.816 236.625 531.816 236.973V256.122H514.503V236.976C514.503 236.628 514.642 236.295 514.888 236.049C515.134 235.803 515.467 235.665 515.815 235.665V235.661Z" fill="white"/>
</svg>
